# xmcd CD database file
#
# Track frame offsets:
#	150
#	19425
#	41552
#	54602
#	73547
#	98752
#	127910
#	145692
#	165637
#	187347
#
# Disc length: 2727 seconds
#
# Revision: 1
# Processed by: cddbd v1.5.1PL2 Copyright (c) Steve Scherf et al.
# Submitted via: CDex 1.51
#
DISCID=8c0aa50a
DTITLE=Various Artist - 鬼神童子ZENKI
DYEAR=1900
DGENRE=アニメ
TTITLE0=影山ヒロノブ/鬼神童子ZENKI
TTITLE1=横山智佐/憧れに近づくために
TTITLE2=山口勝平(セリフ 横山智佐)/オレは最強、前鬼様！
TTITLE3=滝本瞳/笑顔をあげる
TTITLE4=影山ヒロノブ/輪廻転生〜神酒壮真のバラード〜
TTITLE5=新居昭乃(セリフ 天野由梨、笹岡繁蔵、難波圭一、緒方恵美)/欲望と共に去れ！〜邪神カルマの予言〜
TTITLE6=影山ヒロノブ(セリフ 小杉十郎太)/無敵の鬼神
TTITLE7=水木一郎、影山ヒロノブ/CROSS FIRE!
TTITLE8=堀江美都子/愛は無限〜小明、愛のテーマ〜
TTITLE9=横山智佐/Sleepless Angels〜眠れぬ夜の天使たち〜
EXTD=
EXTT0=
EXTT1=
EXTT2=
EXTT3=
EXTT4=
EXTT5=
EXTT6=
EXTT7=
EXTT8=
EXTT9=
PLAYORDER=
